<?xml version="1.0" encoding="UTF-8" standalone="no"?>
<!DOCTYPE svg PUBLIC "-//W3C//DTD SVG 1.1//EN" "http://www.w3.org/Graphics/SVG/1.1/DTD/svg11.dtd">
<svg xmlns="http://www.w3.org/2000/svg" version="1.1" viewBox="0.00 0.00 400.00 400.00">
<g stroke-width="2.00" fill="none" stroke-linecap="butt">
<path stroke="#85ccef" vector-effect="non-scaling-stroke" d="
  M 166.14 43.97
  L 50.12 306.37
  A 0.45 0.45 0.0 0 0 50.53 307.00
  L 119.84 307.00
  A 0.85 0.84 11.6 0 0 120.62 306.49
  L 201.04 125.24
  A 1.82 1.80 52.6 0 0 201.17 124.24
  Q 201.03 123.34 201.40 122.45"
/>
<path stroke="#808080" vector-effect="non-scaling-stroke" d="
  M 201.40 122.45
  L 283.12 306.41
  A 1.00 0.99 -11.8 0 0 284.03 307.00
  L 353.47 307.00
  Q 354.04 307.00 353.81 306.48
  L 237.72 43.89
  Q 237.50 43.38 236.94 43.38
  L 166.50 43.55
  Q 166.32 43.55 166.28 43.73
  Q 166.23 43.94 166.14 43.97"
/>
<path stroke="#064c70" vector-effect="non-scaling-stroke" d="
  M 201.40 122.45
  L 167.01 44.87
  A 0.13 0.12 -9.7 0 0 166.89 44.79
  Q 166.73 44.77 166.59 44.75
  Q 166.33 44.71 166.28 44.44
  Q 166.23 44.21 166.14 43.97"
/>
</g>
<path fill="#ffffff" d="
  M 0.00 0.00
  L 400.00 0.00
  L 400.00 400.00
  L 0.00 400.00
  L 0.00 0.00
  Z
  M 166.14 43.97
  L 50.12 306.37
  A 0.45 0.45 0.0 0 0 50.53 307.00
  L 119.84 307.00
  A 0.85 0.84 11.6 0 0 120.62 306.49
  L 201.04 125.24
  A 1.82 1.80 52.6 0 0 201.17 124.24
  Q 201.03 123.34 201.40 122.45
  L 283.12 306.41
  A 1.00 0.99 -11.8 0 0 284.03 307.00
  L 353.47 307.00
  Q 354.04 307.00 353.81 306.48
  L 237.72 43.89
  Q 237.50 43.38 236.94 43.38
  L 166.50 43.55
  Q 166.32 43.55 166.28 43.73
  Q 166.23 43.94 166.14 43.97
  Z"
/>
<path fill="#000000" d="
  M 201.40 122.45
  L 167.01 44.87
  A 0.13 0.12 -9.7 0 0 166.89 44.79
  Q 166.73 44.77 166.59 44.75
  Q 166.33 44.71 166.28 44.44
  Q 166.23 44.21 166.14 43.97
  Q 166.23 43.94 166.28 43.73
  Q 166.32 43.55 166.50 43.55
  L 236.94 43.38
  Q 237.50 43.38 237.72 43.89
  L 353.81 306.48
  Q 354.04 307.00 353.47 307.00
  L 284.03 307.00
  A 1.00 0.99 -11.8 0 1 283.12 306.41
  L 201.40 122.45
  Z"
/>
<path fill="#0b98df" d="
  M 166.14 43.97
  Q 166.23 44.21 166.28 44.44
  Q 166.33 44.71 166.59 44.75
  Q 166.73 44.77 166.89 44.79
  A 0.13 0.12 -9.7 0 1 167.01 44.87
  L 201.40 122.45
  Q 201.03 123.34 201.17 124.24
  A 1.82 1.80 52.6 0 1 201.04 125.24
  L 120.62 306.49
  A 0.85 0.84 11.6 0 1 119.84 307.00
  L 50.53 307.00
  A 0.45 0.45 0.0 0 1 50.12 306.37
  L 166.14 43.97
  Z"
/>
</svg>
